<?xml version="1.0" encoding="utf-8"?>
<!-- Generator: Adobe Illustrator 21.0.0, SVG Export Plug-In . SVG Version: 6.00 Build 0)  -->
<svg version="1.1" id="Layer_1" xmlns="http://www.w3.org/2000/svg" xmlns:xlink="http://www.w3.org/1999/xlink" x="0px" y="0px"
	 viewBox="0 0 141 90" style="enable-background:new 0 0 141 90;" xml:space="preserve">
<style type="text/css">
	.st0{fill:#DC3545;}
	.st1{fill:#016833;}
</style>
<g>
	<polygon class="st0" points="84.3,89.5 67.6,55.8 67.6,23.2 71.3,23.2 71.3,55 80.6,73.8 80.6,67 84.3,67 	"/>
	<polygon class="st0" points="54.6,89.5 54.6,67 58.3,67 58.3,73.8 67.6,55 67.6,23.1 71.3,23.1 71.3,55.8 	"/>
	<path class="st1" d="M69.5,4.2c-3,0-5.5,2.5-5.5,5.5c0,3,2.5,5.5,5.5,5.5c3,0,5.5-2.5,5.5-5.5C74.9,6.6,72.5,4.2,69.5,4.2
		 M69.5,18.8c-5,0-9.1-4.1-9.1-9.1c0-5,4.1-9.1,9.1-9.1c5,0,9.1,4.1,9.1,9.1C78.6,14.7,74.5,18.8,69.5,18.8"/>
	
		<rect x="43.8" y="15.3" transform="matrix(0.7071 -0.7071 0.7071 0.7071 -2.9622 38.9944)" class="st0" width="3.7" height="15.6"/>
	
		<rect x="43.8" y="15.3" transform="matrix(0.7071 -0.7071 0.7071 0.7071 -2.9622 38.9944)" class="st0" width="3.7" height="15.6"/>
	
		<rect x="87.6" y="21.2" transform="matrix(0.7068 -0.7074 0.7074 0.7068 11.6543 74.2607)" class="st0" width="15.6" height="3.7"/>
	
		<rect x="87.6" y="21.2" transform="matrix(0.7068 -0.7074 0.7074 0.7068 11.6543 74.2607)" class="st0" width="15.6" height="3.7"/>
	<path class="st1" d="M47.4,45v27.4l20.2-17.9V27.2L47.4,45z M43.8,80.6V43.4l25.7-22.8l1.8,1.6v34L43.8,80.6z"/>
	<path class="st1" d="M71.3,54.6l20.2,17.9V45L71.3,27.2V54.6z M95.2,80.6L67.6,56.2v-34l1.8-1.6l25.7,22.8V80.6z"/>
	<path class="st1" d="M47.4,45v27.4l20.2-17.9V27.2L47.4,45z M43.8,80.6V43.4l25.7-22.8l1.8,1.6v34L43.8,80.6z"/>
</g>
<rect x="-79.3" y="-14" class="st1" width="14" height="14"/>
<rect x="-79.3" y="6.3" class="st0" width="14" height="14"/>
</svg>
