<?xml version="1.0" encoding="utf-8"?>
<!-- Generator: Adobe Illustrator 21.0.0, SVG Export Plug-In . SVG Version: 6.00 Build 0)  -->
<svg version="1.1" id="Layer_1" xmlns="http://www.w3.org/2000/svg" xmlns:xlink="http://www.w3.org/1999/xlink" x="0px" y="0px"
	 viewBox="0 0 141 90" style="enable-background:new 0 0 141 90;" xml:space="preserve">
<style type="text/css">
	.st0{fill:none;}
	.st1{fill:#016833;}
	.st2{fill:#DC3545;}
</style>
<g>
	<path class="st0" d="M38.5,41.8l0.1,0.1c4.1-0.1,7.4-3.4,7.4-7.5c0-4.1-3.4-7.5-7.5-7.5c-4.1,0-7.5,3.4-7.5,7.5
		c0,4.1,3.3,7.4,7.4,7.5L38.5,41.8z"/>
	<path class="st0" d="M110,34.4c0-4.1-3.4-7.5-7.5-7.5c-4.1,0-7.5,3.4-7.5,7.5c0,4.1,3.3,7.4,7.4,7.5l0.1-0.1l0.1,0.1
		C106.7,41.8,110,38.5,110,34.4z"/>
	<path class="st1" d="M124.1,60.9l-17.2-15.3c4.5-1.7,7.7-6.1,7.7-11.2c0-6.6-5.4-12-12-12c-6.6,0-12,5.4-12,12
		c0,5.1,3.2,9.5,7.7,11.2l-4.8,4.2l3.4,3l5.7-5l17,15.1v8h-18.6v4.5h23.2L124.1,60.9L124.1,60.9z M102.5,41.8l-0.1,0.1
		c-4.1-0.1-7.4-3.4-7.4-7.5c0-4.1,3.4-7.5,7.5-7.5c4.1,0,7.5,3.4,7.5,7.5c0,4.1-3.3,7.4-7.4,7.5L102.5,41.8z"/>
	<path class="st1" d="M21.4,70.9v-8l17-15.1l5.7,5l3.4-3l-4.8-4.2c4.5-1.7,7.7-6.1,7.7-11.2c0-6.6-5.4-12-12-12c-6.6,0-12,5.4-12,12
		c0,5.1,3.2,9.5,7.7,11.2L16.9,60.9v14.6h23.2v-4.5L21.4,70.9L21.4,70.9z M31,34.4c0-4.1,3.4-7.5,7.5-7.5c4.1,0,7.5,3.4,7.5,7.5
		c0,4.1-3.3,7.4-7.4,7.5l-0.1-0.1l-0.1,0.1C34.3,41.8,31,38.5,31,34.4z"/>
	<g>
		<path class="st0" d="M79.6,28.1c0-5-4.1-9.1-9.1-9.1c-5,0-9.1,4.1-9.1,9.1c0,5,4.1,9.1,9.1,9.1C75.5,37.2,79.6,33.1,79.6,28.1z"/>
		<polygon class="st0" points="50.3,61.1 50.3,70.9 90.7,70.9 90.7,61.1 70.5,43.2 		"/>
		<path class="st2" d="M74.8,41c5.4-1.8,9.3-6.9,9.3-12.9c0-7.5-6.1-13.6-13.6-13.6c-7.5,0-13.6,6.1-13.6,13.6
			c0,6,3.9,11.1,9.3,12.9L45.8,59v16.4h49.4V59L74.8,41z M61.4,28.1c0-5,4.1-9.1,9.1-9.1c5,0,9.1,4.1,9.1,9.1c0,5-4.1,9.1-9.1,9.1
			C65.5,37.2,61.4,33.1,61.4,28.1z M90.7,70.9H50.3v-9.9l20.2-17.8l20.2,17.8V70.9z"/>
	</g>
</g>
<rect x="-46.3" y="27" class="st1" width="14" height="14"/>
<rect x="-46.3" y="47.3" class="st2" width="14" height="14"/>
</svg>
