<?xml version="1.0" encoding="utf-8"?>
<!-- Generator: Adobe Illustrator 21.0.0, SVG Export Plug-In . SVG Version: 6.00 Build 0)  -->
<svg version="1.1" id="Layer_1" xmlns="http://www.w3.org/2000/svg" xmlns:xlink="http://www.w3.org/1999/xlink" x="0px" y="0px"
	 viewBox="0 0 141 90" style="enable-background:new 0 0 141 90;" xml:space="preserve">
<style type="text/css">
	.st0{fill:#DC3545;}
	.st1{fill:#016833;}
</style>
<g>
	<rect x="87.7" y="-2.5" transform="matrix(0.3814 -0.9244 0.9244 0.3814 40.1669 91.9011)" class="st0" width="2" height="36.9"/>
	<path class="st0" d="M104.6,22.5c1.1-2.6,2.4-4.9,3.7-6.5l2,1.6c-1.1,1.3-2.3,3.5-3.3,5.8c-1,2.4-1.6,4.8-1.8,6.5l-2.5-0.2
		C102.8,27.8,103.5,25.1,104.6,22.5"/>
	<path class="st0" d="M60.5,86.2l-2.6-11.7c2.3-0.5,4.8-0.3,7.2,0.6c2.4,1,4.3,2.6,5.5,4.6L60.5,86.2z"/>
	<rect x="29.2" y="86.2" class="st0" width="30" height="3.3"/>
	<path class="st1" d="M55.6,54.5l6.3,28.4l24.5-15.7l15.2-36.7L70.8,17.8L55.6,54.5z M59.1,89.5l-7.8-35.4l17.3-41.7l38.3,15.8
		L89.6,69.9L59.1,89.5z"/>
	<polygon class="st1" points="86,68.8 83.8,62.4 75.4,66.5 72.3,57.7 63.9,61.7 60.8,52.9 54.2,56.1 52.5,52.6 63,47.6 66.1,56.4 
		74.5,52.3 77.6,61.1 86,57.1 89.7,67.6 	"/>
	<polygon class="st1" points="73.5,0.5 56.3,42.2 60.5,42.6 75.7,5.8 110.3,20.1 111.8,16.3 	"/>
</g>
</svg>
